<?xml version="1.0" standalone="no"?>
 <!DOCTYPE svg PUBLIC "-//W3C//DTD SVG 1.1//EN" 
 "http://www.w3.org/Graphics/SVG/1.1/DTD/svg11.dtd"> 
<svg xmlns="http://www.w3.org/2000/svg" version="1.1" 
    width="3.59918cm" height="5.31114cm" viewBox="0 0 14170 20910 ">
<title>SVG Picture created as Modulo de Temperatura-brd.svg date 2018/01/08 23:35:24 </title>
  <desc>Picture generated by PCBNEW </desc>
<g style="fill:#000000; fill-opacity:1;stroke:#000000; stroke-opacity:1;
stroke-linecap:round; stroke-linejoin:round; "
 transform="translate(0 0) scale(1 1)">
</g>
<g style="fill:#000000; fill-opacity:0.0; 
stroke:#000000; stroke-width:-0.000393701; stroke-opacity:1; 
stroke-linecap:round; stroke-linejoin:round;">
</g>
<g style="fill:#000000; fill-opacity:1.0; 
stroke:#000000; stroke-width:0; stroke-opacity:1; 
stroke-linecap:round; stroke-linejoin:round;">
<circle cx="5399.61" cy="17481.5" r="393.5" /> 
</g>
<g style="fill:#000000; fill-opacity:1.0; 
stroke:#000000; stroke-width:19.685; stroke-opacity:1; 
stroke-linecap:round; stroke-linejoin:round;">
</g>
<g style="fill:#000000; fill-opacity:1.0; 
stroke:#000000; stroke-width:0; stroke-opacity:1; 
stroke-linecap:round; stroke-linejoin:round;">
<circle cx="5399.61" cy="13481.5" r="393.5" /> 
</g>
<g style="fill:#000000; fill-opacity:1.0; 
stroke:#000000; stroke-width:19.685; stroke-opacity:1; 
stroke-linecap:round; stroke-linejoin:round;">
</g>
<g style="fill:#000000; fill-opacity:1.0; 
stroke:#000000; stroke-width:0; stroke-opacity:1; 
stroke-linecap:round; stroke-linejoin:round;">
<polyline style="fill-rule:evenodd;"
points="7405,7775
7405,8287
6893,8287
6893,7775
7405,7775
" /> 
<circle cx="6362.2" cy="8031.5" r="255.906" /> 
</g>
<g style="fill:#000000; fill-opacity:1.0; 
stroke:#000000; stroke-width:19.685; stroke-opacity:1; 
stroke-linecap:round; stroke-linejoin:round;">
</g>
<g style="fill:#000000; fill-opacity:1.0; 
stroke:#000000; stroke-width:0; stroke-opacity:1; 
stroke-linecap:round; stroke-linejoin:round;">
<polyline style="fill-rule:evenodd;"
points="6655,11287
6143,11287
6143,10775
6655,10775
6655,11287
" /> 
<circle cx="6399.61" cy="10047.2" r="255.906" /> 
</g>
<g style="fill:#000000; fill-opacity:1.0; 
stroke:#000000; stroke-width:19.685; stroke-opacity:1; 
stroke-linecap:round; stroke-linejoin:round;">
</g>
<g style="fill:#000000; fill-opacity:1.0; 
stroke:#000000; stroke-width:0; stroke-opacity:1; 
stroke-linecap:round; stroke-linejoin:round;">
<polyline style="fill-rule:evenodd;"
points="9643,9537
9643,9025
10155,9025
10155,9537
9643,9537
" /> 
<circle cx="10687" cy="9281.5" r="255.906" /> 
</g>
<g style="fill:#000000; fill-opacity:1.0; 
stroke:#000000; stroke-width:19.685; stroke-opacity:1; 
stroke-linecap:round; stroke-linejoin:round;">
</g>
<g style="fill:#000000; fill-opacity:1.0; 
stroke:#000000; stroke-width:0; stroke-opacity:1; 
stroke-linecap:round; stroke-linejoin:round;">
<polyline style="fill-rule:evenodd;"
points="12405,6525
12405,7037
11893,7037
11893,6525
12405,6525
" /> 
<circle cx="11165.4" cy="6781.5" r="255.906" /> 
</g>
<g style="fill:#000000; fill-opacity:1.0; 
stroke:#000000; stroke-width:19.685; stroke-opacity:1; 
stroke-linecap:round; stroke-linejoin:round;">
</g>
<g style="fill:#000000; fill-opacity:1.0; 
stroke:#000000; stroke-width:0; stroke-opacity:1; 
stroke-linecap:round; stroke-linejoin:round;">
<polyline style="fill-rule:evenodd;"
points="11893,10287
11893,9775
12405,9775
12405,10287
11893,10287
" /> 
<circle cx="13133.9" cy="10031.5" r="255.906" /> 
</g>
<g style="fill:#000000; fill-opacity:1.0; 
stroke:#000000; stroke-width:19.685; stroke-opacity:1; 
stroke-linecap:round; stroke-linejoin:round;">
</g>
<g style="fill:#000000; fill-opacity:1.0; 
stroke:#000000; stroke-width:0; stroke-opacity:1; 
stroke-linecap:round; stroke-linejoin:round;">
<polyline style="fill-rule:evenodd;"
points="7739,4681
7059,4681
7059,3881
7739,3881
7739,4681
" /> 
</g>
<g style="fill:#000000; fill-opacity:1.0; 
stroke:#000000; stroke-width:680; stroke-opacity:1; 
stroke-linecap:round; stroke-linejoin:round;">
</g>
<g style="fill:#000000; fill-opacity:0.0; 
stroke:#000000; stroke-width:680; stroke-opacity:1; 
stroke-linecap:round; stroke-linejoin:round;">
<path d="M8399 4341
L8399 4221
" />
<path d="M9399 4341
L9399 4221
" />
<path d="M10399 4341
L10399 4221
" />
<path d="M11399 4341
L11399 4221
" />
<path d="M12399 4341
L12399 4221
" />
</g>
<g style="fill:#000000; fill-opacity:0.0; 
stroke:#000000; stroke-width:0; stroke-opacity:1; 
stroke-linecap:round; stroke-linejoin:round;">
</g>
<g style="fill:#000000; fill-opacity:1.0; 
stroke:#000000; stroke-width:0; stroke-opacity:1; 
stroke-linecap:round; stroke-linejoin:round;">
<polyline style="fill-rule:evenodd;"
points="5709,4721
5709,3841
6589,3841
6589,4721
5709,4721
" /> 
<polyline style="fill-rule:evenodd;"
points="9059,5131
9739,5131
9739,5931
9059,5931
9059,5131
" /> 
</g>
<g style="fill:#000000; fill-opacity:1.0; 
stroke:#000000; stroke-width:680; stroke-opacity:1; 
stroke-linecap:round; stroke-linejoin:round;">
</g>
<g style="fill:#000000; fill-opacity:0.0; 
stroke:#000000; stroke-width:680; stroke-opacity:1; 
stroke-linecap:round; stroke-linejoin:round;">
<path d="M8399 5471
L8399 5591
" />
<path d="M7399 5471
L7399 5591
" />
</g>
<g style="fill:#000000; fill-opacity:1.0; 
stroke:#000000; stroke-width:0; stroke-opacity:1; 
stroke-linecap:round; stroke-linejoin:round;">
<circle cx="6149.61" cy="19781.5" r="300" /> 
</g>
<g style="fill:#000000; fill-opacity:1.0; 
stroke:#000000; stroke-width:19.685; stroke-opacity:1; 
stroke-linecap:round; stroke-linejoin:round;">
</g>
<g style="fill:#000000; fill-opacity:1.0; 
stroke:#000000; stroke-width:0; stroke-opacity:1; 
stroke-linecap:round; stroke-linejoin:round;">
<circle cx="5149.61" cy="19781.5" r="300" /> 
</g>
<g style="fill:#000000; fill-opacity:1.0; 
stroke:#000000; stroke-width:19.685; stroke-opacity:1; 
stroke-linecap:round; stroke-linejoin:round;">
</g>
<g style="fill:#000000; fill-opacity:1.0; 
stroke:#000000; stroke-width:0; stroke-opacity:1; 
stroke-linecap:round; stroke-linejoin:round;">
<circle cx="7149.61" cy="19781.5" r="300" /> 
</g>
<g style="fill:#000000; fill-opacity:1.0; 
stroke:#000000; stroke-width:19.685; stroke-opacity:1; 
stroke-linecap:round; stroke-linejoin:round;">
</g>
<g style="fill:#000000; fill-opacity:1.0; 
stroke:#000000; stroke-width:0; stroke-opacity:1; 
stroke-linecap:round; stroke-linejoin:round;">
<circle cx="12399.6" cy="19781.5" r="300" /> 
</g>
<g style="fill:#000000; fill-opacity:1.0; 
stroke:#000000; stroke-width:19.685; stroke-opacity:1; 
stroke-linecap:round; stroke-linejoin:round;">
</g>
<g style="fill:#000000; fill-opacity:1.0; 
stroke:#000000; stroke-width:0; stroke-opacity:1; 
stroke-linecap:round; stroke-linejoin:round;">
<circle cx="11399.6" cy="19781.5" r="300" /> 
</g>
<g style="fill:#000000; fill-opacity:1.0; 
stroke:#000000; stroke-width:19.685; stroke-opacity:1; 
stroke-linecap:round; stroke-linejoin:round;">
</g>
<g style="fill:#000000; fill-opacity:1.0; 
stroke:#000000; stroke-width:0; stroke-opacity:1; 
stroke-linecap:round; stroke-linejoin:round;">
<circle cx="13399.6" cy="19781.5" r="300" /> 
</g>
<g style="fill:#000000; fill-opacity:1.0; 
stroke:#000000; stroke-width:19.685; stroke-opacity:1; 
stroke-linecap:round; stroke-linejoin:round;">
</g>
<g style="fill:#000000; fill-opacity:1.0; 
stroke:#000000; stroke-width:0; stroke-opacity:1; 
stroke-linecap:round; stroke-linejoin:round;">
<polyline style="fill-rule:evenodd;"
points="8124,20057
8124,19505
8675,19505
8675,20057
8124,20057
" /> 
<circle cx="10368.1" cy="19781.5" r="275.591" /> 
</g>
<g style="fill:#000000; fill-opacity:1.0; 
stroke:#000000; stroke-width:19.685; stroke-opacity:1; 
stroke-linecap:round; stroke-linejoin:round;">
</g>
<g style="fill:#000000; fill-opacity:1.0; 
stroke:#000000; stroke-width:0; stroke-opacity:1; 
stroke-linecap:round; stroke-linejoin:round;">
<circle cx="7149.61" cy="17531.5" r="393.5" /> 
</g>
<g style="fill:#000000; fill-opacity:1.0; 
stroke:#000000; stroke-width:19.685; stroke-opacity:1; 
stroke-linecap:round; stroke-linejoin:round;">
</g>
<g style="fill:#000000; fill-opacity:1.0; 
stroke:#000000; stroke-width:0; stroke-opacity:1; 
stroke-linecap:round; stroke-linejoin:round;">
<circle cx="7149.61" cy="13531.5" r="393.5" /> 
</g>
<g style="fill:#000000; fill-opacity:1.0; 
stroke:#000000; stroke-width:19.685; stroke-opacity:1; 
stroke-linecap:round; stroke-linejoin:round;">
</g>
<g style="fill:#000000; fill-opacity:1.0; 
stroke:#000000; stroke-width:0; stroke-opacity:1; 
stroke-linecap:round; stroke-linejoin:round;">
<circle cx="9899.61" cy="17531.5" r="393.5" /> 
</g>
<g style="fill:#000000; fill-opacity:1.0; 
stroke:#000000; stroke-width:19.685; stroke-opacity:1; 
stroke-linecap:round; stroke-linejoin:round;">
</g>
<g style="fill:#000000; fill-opacity:1.0; 
stroke:#000000; stroke-width:0; stroke-opacity:1; 
stroke-linecap:round; stroke-linejoin:round;">
<circle cx="9899.61" cy="13531.5" r="393.5" /> 
</g>
<g style="fill:#000000; fill-opacity:1.0; 
stroke:#000000; stroke-width:19.685; stroke-opacity:1; 
stroke-linecap:round; stroke-linejoin:round;">
</g>
<g style="fill:#000000; fill-opacity:1.0; 
stroke:#000000; stroke-width:0; stroke-opacity:1; 
stroke-linecap:round; stroke-linejoin:round;">
<circle cx="11399.6" cy="13531.5" r="393.5" /> 
</g>
<g style="fill:#000000; fill-opacity:1.0; 
stroke:#000000; stroke-width:19.685; stroke-opacity:1; 
stroke-linecap:round; stroke-linejoin:round;">
</g>
<g style="fill:#000000; fill-opacity:1.0; 
stroke:#000000; stroke-width:0; stroke-opacity:1; 
stroke-linecap:round; stroke-linejoin:round;">
<circle cx="11399.6" cy="17531.5" r="393.5" /> 
</g>
<g style="fill:#000000; fill-opacity:1.0; 
stroke:#000000; stroke-width:19.685; stroke-opacity:1; 
stroke-linecap:round; stroke-linejoin:round;">
</g>
<g style="fill:#000000; fill-opacity:1.0; 
stroke:#000000; stroke-width:0; stroke-opacity:1; 
stroke-linecap:round; stroke-linejoin:round;">
<circle cx="8149.61" cy="16281.5" r="275.591" /> 
</g>
<g style="fill:#000000; fill-opacity:1.0; 
stroke:#000000; stroke-width:19.685; stroke-opacity:1; 
stroke-linecap:round; stroke-linejoin:round;">
</g>
<g style="fill:#000000; fill-opacity:1.0; 
stroke:#000000; stroke-width:0; stroke-opacity:1; 
stroke-linecap:round; stroke-linejoin:round;">
<circle cx="8149.61" cy="14281.5" r="275.591" /> 
</g>
<g style="fill:#000000; fill-opacity:1.0; 
stroke:#000000; stroke-width:19.685; stroke-opacity:1; 
stroke-linecap:round; stroke-linejoin:round;">
</g>
<g style="fill:#000000; fill-opacity:1.0; 
stroke:#000000; stroke-width:0; stroke-opacity:1; 
stroke-linecap:round; stroke-linejoin:round;">
<circle cx="10149.6" cy="11281.5" r="275.591" /> 
</g>
<g style="fill:#000000; fill-opacity:1.0; 
stroke:#000000; stroke-width:19.685; stroke-opacity:1; 
stroke-linecap:round; stroke-linejoin:round;">
</g>
<g style="fill:#000000; fill-opacity:1.0; 
stroke:#000000; stroke-width:0; stroke-opacity:1; 
stroke-linecap:round; stroke-linejoin:round;">
<circle cx="12899.6" cy="11281.5" r="275.591" /> 
</g>
<g style="fill:#000000; fill-opacity:1.0; 
stroke:#000000; stroke-width:19.685; stroke-opacity:1; 
stroke-linecap:round; stroke-linejoin:round;">
</g>
<g style="fill:#000000; fill-opacity:1.0; 
stroke:#000000; stroke-width:0; stroke-opacity:1; 
stroke-linecap:round; stroke-linejoin:round;">
<circle cx="9399.61" cy="8281.5" r="275.591" /> 
</g>
<g style="fill:#000000; fill-opacity:1.0; 
stroke:#000000; stroke-width:19.685; stroke-opacity:1; 
stroke-linecap:round; stroke-linejoin:round;">
</g>
<g style="fill:#000000; fill-opacity:1.0; 
stroke:#000000; stroke-width:0; stroke-opacity:1; 
stroke-linecap:round; stroke-linejoin:round;">
<circle cx="9399.61" cy="6531.5" r="275.591" /> 
</g>
<g style="fill:#000000; fill-opacity:1.0; 
stroke:#000000; stroke-width:19.685; stroke-opacity:1; 
stroke-linecap:round; stroke-linejoin:round;">
</g>
<g style="fill:#000000; fill-opacity:1.0; 
stroke:#000000; stroke-width:0; stroke-opacity:1; 
stroke-linecap:round; stroke-linejoin:round;">
<circle cx="8649.61" cy="8281.5" r="275.591" /> 
</g>
<g style="fill:#000000; fill-opacity:1.0; 
stroke:#000000; stroke-width:19.685; stroke-opacity:1; 
stroke-linecap:round; stroke-linejoin:round;">
</g>
<g style="fill:#000000; fill-opacity:1.0; 
stroke:#000000; stroke-width:0; stroke-opacity:1; 
stroke-linecap:round; stroke-linejoin:round;">
<circle cx="8649.61" cy="6531.5" r="275.591" /> 
</g>
<g style="fill:#000000; fill-opacity:1.0; 
stroke:#000000; stroke-width:19.685; stroke-opacity:1; 
stroke-linecap:round; stroke-linejoin:round;">
</g>
<g style="fill:#000000; fill-opacity:1.0; 
stroke:#000000; stroke-width:0; stroke-opacity:1; 
stroke-linecap:round; stroke-linejoin:round;">
<circle cx="12149.6" cy="12531.5" r="275.591" /> 
</g>
<g style="fill:#000000; fill-opacity:1.0; 
stroke:#000000; stroke-width:19.685; stroke-opacity:1; 
stroke-linecap:round; stroke-linejoin:round;">
</g>
<g style="fill:#000000; fill-opacity:1.0; 
stroke:#000000; stroke-width:0; stroke-opacity:1; 
stroke-linecap:round; stroke-linejoin:round;">
<circle cx="9649.61" cy="12531.5" r="275.591" /> 
</g>
<g style="fill:#000000; fill-opacity:1.0; 
stroke:#000000; stroke-width:19.685; stroke-opacity:1; 
stroke-linecap:round; stroke-linejoin:round;">
</g>
<g style="fill:#000000; fill-opacity:1.0; 
stroke:#000000; stroke-width:393.701; stroke-opacity:1; 
stroke-linecap:round; stroke-linejoin:round;">
</g>
<g style="fill:#000000; fill-opacity:0.0; 
stroke:#000000; stroke-width:393.701; stroke-opacity:1; 
stroke-linecap:round; stroke-linejoin:round;">
<path d="M7399 5531
L7399 4281
" />
<path d="M7149 8031
L7149 6531
" />
<path d="M7399 6281
L7399 5531
" />
<path d="M7149 6531
L7399 6281
" />
<path d="M7149 8031
L7149 12031
" />
<path d="M7149 12031
L8149 13031
" />
<path d="M7399 19031
L7149 19781
" />
<path d="M8149 18781
L7899 19031
" />
<path d="M8149 16281
L8149 18781
" />
<path d="M8149 13031
L8149 14281
" />
<path d="M7899 19031
L7399 19031
" />
<path d="M10687 9281
L10687 7494
" />
<path d="M10687 7494
L11165 7015
" />
<path d="M11165 7015
L11165 6781
" />
<path d="M6399 11031
L6399 12781
" />
<path d="M6399 12781
L7149 13531
" />
<path d="M9899 11031
L9899 9281
" />
<path d="M10149 11281
L9899 11031
" />
<path d="M13399 11781
L12899 11281
" />
<path d="M13399 12031
L13399 11781
" />
<path d="M13399 14531
L13399 12031
" />
<path d="M12149 15781
L13399 14531
" />
<path d="M12149 17031
L12149 15781
" />
<path d="M13149 18031
L12149 17031
" />
<path d="M13149 19281
L13149 18031
" />
<path d="M13399 19531
L13149 19281
" />
<path d="M13399 19781
L13399 19531
" />
<path d="M9399 5531
L9399 6531
" />
<path d="M9899 8781
L9899 9281
" />
<path d="M9399 8281
L9899 8781
" />
<path d="M9399 4281
L9399 5531
" />
<path d="M11399 13531
L11399 7781
" />
<path d="M11399 7781
L12149 7031
" />
<path d="M12149 7031
L12149 6781
" />
<path d="M12149 6531
L11399 5781
" />
<path d="M11399 5781
L11399 4281
" />
<path d="M12149 10031
L12149 8031
" />
<path d="M12399 5531
L12399 4281
" />
<path d="M12899 6031
L12399 5531
" />
<path d="M12899 7281
L12899 6031
" />
<path d="M12149 8031
L12899 7281
" />
<path d="M9899 17531
L9899 16031
" />
<path d="M12149 11531
L12149 10031
" />
<path d="M12899 12281
L12149 11531
" />
<path d="M12899 14281
L12899 12281
" />
<path d="M11899 15281
L12899 14281
" />
<path d="M10649 15281
L11899 15281
" />
<path d="M9899 16031
L10649 15281
" />
<path d="M10368 19781
L10368 18000
" />
<path d="M10368 18000
L9899 17531
" />
<path d="M8899 12781
L8899 14781
" />
<path d="M7899 11781
L8899 12781
" />
<path d="M7899 7531
L7899 11781
" />
<path d="M8149 7281
L7899 7531
" />
<path d="M10149 7281
L8149 7281
" />
<path d="M8899 14781
L8399 15281
" />
<path d="M7149 15781
L7149 17531
" />
<path d="M7649 15281
L7149 15781
" />
<path d="M8399 15281
L7649 15281
" />
<path d="M6149 18531
L7149 17531
" />
<path d="M10399 7031
L10149 7281
" />
<path d="M10399 6531
L10399 7031
" />
<path d="M10399 4281
L10399 6531
" />
<path d="M6149 19031
L6149 18531
" />
<path d="M6149 19781
L6149 19031
" />
<path d="M5399 18281
L5399 17531
" />
<path d="M6149 19031
L5399 18281
" />
<path d="M6149 4281
L5399 5031
" />
<path d="M5399 5031
L5399 13531
" />
<path d="M8399 6281
L8399 5531
" />
<path d="M9649 12531
L8649 11531
" />
<path d="M8649 11531
L8649 8281
" />
<path d="M8649 6531
L8399 6281
" />
<path d="M8899 19281
L8899 16031
" />
<path d="M8899 16031
L10399 14531
" />
<path d="M10399 14531
L11649 14531
" />
<path d="M11649 14531
L12189 13811
" />
<path d="M12189 13811
L12149 12531
" />
<path d="M8399 19781
L8899 19281
" />
<path d="M9649 12531
L9649 12531
" />
<path d="M12399 19781
L12399 18531
" />
<path d="M12399 18531
L11399 17531
" />
</g>
<g style="fill:#000000; fill-opacity:1.0; 
stroke:#000000; stroke-width:100; stroke-opacity:1; 
stroke-linecap:round; stroke-linejoin:round;">
<polyline style="fill-rule:evenodd;"
points="13849,19692
13781,19526
13736,19482
13720,19398
13644,19286
13496,19137
13496,18031
13470,17898
13470,17898
13394,17786
12496,16887
12496,15925
13644,14776
13720,14664
13746,14531
13746,11781
13720,11648
13644,11536
13325,11216
13325,11197
13260,11040
13140,10920
12984,10855
12815,10855
12658,10920
12539,11040
12496,11142
12496,10407
12512,10397
12520,10385
12850,10385
12872,10476
13062,10542
13263,10530
13395,10476
13417,10385
13133,10102
12850,10385
12520,10385
12546,10346
12558,10287
12558,9960
12622,9960
12634,10161
12689,10292
12779,10314
13063,10031
13204,10031
13487,10314
13578,10292
13644,10102
13633,9901
13578,9770
13487,9748
13204,10031
13063,10031
12779,9748
12689,9770
12622,9960
12558,9960
12558,9775
12547,9720
12520,9677
12850,9677
13133,9960
13417,9677
13395,9586
13205,9520
13004,9532
12872,9586
12850,9677
12520,9677
12515,9668
12496,9656
12496,8175
13144,7526
13220,7414
13246,7281
13246,6031
13220,5898
13144,5786
12746,5387
12746,4698
12852,4539
12889,4352
12889,4210
12852,4023
12746,3864
12587,3758
12399,3720
12212,3758
12053,3864
11946,4023
11909,4210
11909,4352
11946,4539
12052,4698
12052,5531
12079,5664
12154,5776
12552,6175
12552,6495
12547,6470
12515,6418
12465,6384
12459,6383
12394,6286
11746,5637
11746,4698
11852,4539
11889,4352
11889,4210
11852,4023
11746,3864
11587,3758
11399,3720
11212,3758
11053,3864
10946,4023
10909,4210
10909,4352
10946,4539
11052,4698
11052,5781
11079,5914
11154,6026
11740,6613
11740,6949
11154,7536
11079,7648
11052,7781
11052,9001
11040,8998
10757,9281
11040,9564
11052,9561
11052,13109
10939,13223
10856,13422
10856,13639
10938,13838
11091,13991
11291,14074
11507,14075
11581,14044
11476,14184
10399,14184
10266,14211
10154,14286
8654,15786
8579,15898
8552,16031
8552,16142
8510,16040
8390,15920
8234,15855
8065,15855
7908,15920
7789,16040
7724,16196
7723,16365
7788,16522
7802,16536
7802,18637
7755,18684
7399,18684
7387,18687
7375,18685
7321,18700
7266,18711
7256,18717
7244,18721
7200,18755
7154,18786
7147,18796
7137,18804
7110,18852
7079,18898
7076,18910
7070,18921
6913,19392
6895,19399
6768,19526
6699,19691
6699,19870
6767,20036
6894,20162
7059,20231
7238,20231
7404,20163
7530,20036
7599,19871
7599,19692
7569,19619
7649,19378
7899,19378
8032,19351
8144,19276
8394,19026
8470,18914
8496,18781
8496,16536
8510,16522
8552,16420
8552,19137
8337,19352
8124,19352
8068,19363
8017,19396
7983,19446
7971,19505
7971,20057
7981,20112
8014,20163
8064,20197
8124,20210
8675,20210
8730,20199
8781,20166
8816,20116
8828,20057
8828,19843
9144,19526
9220,19414
9246,19281
9246,16175
10543,14878
11649,14878
11673,14873
11698,14874
11739,14860
11782,14851
11802,14838
11826,14829
11858,14800
11894,14776
11908,14756
11927,14739
12467,14019
12488,13975
12514,13934
12517,13915
12525,13897
12528,13848
12536,13800
12504,12778
12510,12772
12552,12670
12552,14137
11755,14934
10649,14934
10516,14961
10404,15036
9654,15786
9579,15898
9552,16031
9552,17109
9439,17223
9356,17422
9356,17639
9438,17838
9591,17991
9791,18074
9952,18075
10021,18143
10021,19526
10007,19540
9942,19696
9942,19865
10007,20022
10126,20142
10283,20207
10452,20207
10548,20167
11084,20167
11111,20262
11317,20336
11536,20325
11687,20262
11714,20167
11399,19852
11084,20167
10548,20167
10608,20142
10728,20022
10793,19866
10793,19699
10844,19699
10855,19918
10918,20069
11013,20096
11328,19781
11013,19466
10918,19493
10844,19699
10793,19699
10793,19697
10729,19540
10714,19526
10714,19395
11084,19395
11399,19710
11714,19395
11687,19300
11481,19226
11262,19237
11111,19300
11084,19395
10714,19395
10714,18000
10688,17867
10613,17754
10497,17639
10856,17639
10938,17838
11091,17991
11291,18074
11452,18075
12052,18675
12052,19491
12018,19526
11949,19691
11949,19767
11943,19644
11880,19493
11785,19466
11470,19781
11785,20096
11880,20069
11950,19873
12017,20036
12144,20162
12309,20231
12488,20231
12654,20163
12780,20036
12849,19871
12849,19692
12781,19526
12746,19492
12746,18531
12720,18398
12720,18398
12644,18286
11943,17584
11943,17423
11860,17224
11707,17071
11508,16988
11291,16987
11092,17070
10939,17223
10856,17422
10856,17639
10497,17639
10443,17584
10443,17423
10360,17224
10246,17109
10246,16175
10793,15628
11842,15628
11829,15648
11802,15781
11802,17031
11829,17164
11904,17276
12802,18175
12802,19281
12829,19414
12904,19526
12984,19607
12949,19691
12949,19870
13017,20036
13144,20162
13309,20231
13488,20231
13654,20163
13780,20036
13849,19871
13849,19781
13849,20601
4329,20601
4329,20167
4834,20167
4861,20262
5067,20336
5286,20325
5437,20262
5464,20167
5149,19852
4834,20167
4329,20167
4329,19699
4594,19699
4605,19918
4668,20069
4763,20096
5078,19781
4763,19466
4668,19493
4594,19699
4329,19699
4329,19395
4834,19395
5149,19710
5464,19395
5437,19300
5231,19226
5012,19237
4861,19300
4834,19395
4329,19395
4329,17589
4856,17589
4938,17788
5052,17903
5052,18281
5079,18414
5154,18526
5802,19175
5802,19491
5768,19526
5699,19691
5699,19767
5693,19644
5630,19493
5535,19466
5220,19781
5535,20096
5630,20069
5700,19873
5767,20036
5894,20162
6059,20231
6238,20231
6404,20163
6530,20036
6599,19871
6599,19692
6531,19526
6496,19492
6496,18675
7096,18074
7257,18075
7457,17992
7610,17839
7693,17640
7693,17423
7610,17224
7496,17109
7496,15925
7793,15628
8399,15628
8532,15601
8644,15526
9144,15026
9220,14914
9246,14781
9246,13985
9516,13985
9555,14090
9795,14179
10051,14169
10243,14090
10282,13985
9899,13602
9516,13985
9246,13985
9246,13427
9251,13427
9261,13683
9340,13875
9445,13914
9828,13531
9970,13531
10353,13914
10458,13875
10547,13635
10537,13379
10458,13187
10353,13148
9970,13531
9828,13531
9445,13148
9340,13187
9251,13427
9246,13427
9246,12781
9220,12648
9220,12648
9144,12536
8246,11637
8246,8420
8288,8522
8302,8536
8302,11531
8329,11664
8404,11776
9223,12596
9223,12615
9288,12772
9408,12892
9564,12957
9593,12957
9555,12972
9516,13077
9899,13460
10282,13077
10243,12972
10003,12883
9895,12887
10010,12772
10075,12616
10075,12447
10010,12290
9890,12170
9734,12105
9714,12105
8996,11387
8996,8536
9010,8522
9024,8488
9038,8522
9158,8642
9314,8707
9334,8707
9541,8913
9537,8915
9502,8966
9490,9025
9490,9537
9501,9592
9534,9644
9552,9656
9552,11031
9579,11164
9654,11276
9723,11346
9723,11365
9788,11522
9908,11642
10064,11707
10233,11707
10390,11642
10510,11522
10575,11366
10575,11197
10510,11040
10390,10920
10246,10860
10246,9657
10262,9647
10270,9635
10403,9635
10425,9726
10615,9792
10816,9780
10948,9726
10970,9635
10687,9352
10403,9635
10270,9635
10296,9596
10304,9557
10333,9564
10616,9281
10333,8998
10304,9005
10297,8970
10270,8927
10403,8927
10687,9210
10970,8927
10948,8836
10758,8770
10557,8782
10425,8836
10403,8927
10270,8927
10265,8918
10246,8906
10246,8781
10220,8648
10144,8536
9825,8216
9825,8197
9760,8040
9640,7920
9484,7855
9315,7855
9158,7920
9039,8040
9024,8074
9010,8040
8890,7920
8734,7855
8565,7855
8408,7920
8289,8040
8246,8142
8246,7675
8293,7628
10149,7628
10282,7601
10394,7526
10644,7276
10720,7164
10725,7135
10882,7135
10904,7226
11094,7292
11295,7280
11426,7226
11448,7135
11165,6852
10882,7135
10725,7135
10743,7048
10811,7064
11094,6781
11236,6781
11519,7064
11610,7042
11676,6852
11664,6651
11610,6520
11519,6498
11236,6781
11094,6781
10811,6498
10746,6513
10746,6427
10882,6427
11165,6710
11448,6427
11426,6336
11236,6270
11035,6282
10904,6336
10882,6427
10746,6427
10746,4698
10852,4539
10889,4352
10889,4210
10852,4023
10746,3864
10587,3758
10399,3720
10212,3758
10053,3864
9946,4023
9909,4210
9909,4352
9946,4539
10052,4698
10052,6887
10005,6934
9538,6934
9640,6892
9760,6772
9825,6616
9825,6447
9760,6290
9746,6276
9746,6083
9795,6073
9846,6041
9880,5990
9892,5931
9892,5131
9882,5075
9849,5024
9799,4990
9746,4979
9746,4698
9852,4539
9889,4352
9889,4210
9852,4023
9746,3864
9587,3758
9399,3720
9212,3758
9053,3864
8946,4023
8945,4028
8908,3921
8754,3749
8547,3649
8540,3648
8449,3696
8449,4231
8457,4231
8457,4331
8449,4331
8449,4866
8540,4914
8547,4913
8754,4813
8908,4641
8945,4534
8946,4539
9052,4698
9052,4979
9004,4989
8952,5021
8918,5071
8906,5131
8906,5931
8917,5987
8949,6038
9000,6072
9052,6083
9052,6276
9039,6290
9024,6324
9010,6290
8890,6170
8746,6110
8746,5948
8852,5789
8889,5602
8889,5460
8852,5273
8746,5114
8587,5008
8399,4970
8212,5008
8053,5114
7946,5273
7909,5460
7909,5602
7946,5789
8052,5948
8052,6281
8079,6414
8154,6526
8223,6596
8223,6615
8288,6772
8408,6892
8510,6934
8149,6934
8016,6961
7904,7036
7654,7286
7579,7398
7552,7531
7552,7745
7547,7720
7515,7668
7496,7656
7496,6675
7644,6526
7720,6414
7746,6281
7746,5948
7852,5789
7889,5602
7889,5460
7852,5273
7746,5114
7746,4833
7795,4823
7846,4791
7880,4740
7892,4681
7892,4643
8044,4813
8252,4913
8258,4914
8349,4866
8349,4331
8341,4331
8341,4231
8349,4231
8349,3696
8258,3648
8252,3649
8044,3749
7892,3919
7892,3881
7882,3825
7849,3774
7799,3740
7739,3728
7059,3728
7004,3739
6952,3771
6918,3821
6906,3881
6906,4681
6917,4737
6949,4788
7000,4822
7052,4833
7052,5114
6946,5273
6909,5460
6909,5602
6946,5789
7052,5948
7052,6137
6904,6286
6829,6398
6802,6531
6802,7655
6787,7665
6752,7716
6744,7755
6716,7748
6432,8031
6716,8314
6744,8307
6751,8342
6784,8394
6802,8406
6802,9775
6753,9764
6470,10047
6753,10330
6802,10318
6802,10745
6797,10720
6765,10668
6715,10634
6655,10622
6143,10622
6088,10633
6037,10665
6002,10716
5990,10775
5990,11287
6001,11342
6034,11394
6052,11406
6052,12781
6079,12914
6154,13026
6606,13478
6606,13639
6688,13838
6841,13991
7041,14074
7257,14075
7457,13992
7610,13839
7693,13640
7693,13423
7610,13224
7457,13071
7258,12988
7096,12987
6746,12637
6746,11407
6762,11397
6796,11346
6802,11315
6802,12031
6829,12164
6904,12276
7802,13175
7802,14026
7789,14040
7724,14196
7723,14365
7788,14522
7908,14642
8064,14707
8233,14707
8390,14642
8510,14522
8552,14420
8552,14637
8255,14934
7649,14934
7516,14961
7404,15036
6904,15536
6829,15648
6802,15781
6802,17109
6689,17223
6606,17422
6606,17584
5904,18286
5900,18291
5746,18137
5746,17903
5860,17789
5943,17590
5943,17373
5860,17174
5707,17021
5508,16938
5291,16937
5092,17020
4939,17173
4856,17372
4856,17589
4329,17589
4329,13589
4856,13589
4938,13788
5091,13941
5291,14024
5507,14025
5707,13942
5860,13789
5943,13590
5943,13373
5860,13174
5746,13059
5746,10401
6116,10401
6138,10491
6328,10558
6529,10546
6660,10491
6682,10401
6399,10117
6116,10401
5746,10401
5746,9976
5888,9976
5900,10176
5954,10308
6045,10330
6328,10047
6045,9764
5954,9785
5888,9976
5746,9976
5746,9693
6116,9693
6399,9976
6682,9693
6660,9602
6470,9536
6269,9547
6138,9602
6116,9693
5746,9693
5746,8385
6078,8385
6100,8476
6290,8542
6491,8530
6623,8476
6645,8385
6362,8102
6078,8385
5746,8385
5746,7960
5851,7960
5862,8161
5917,8292
6008,8314
6291,8031
6008,7748
5917,7770
5851,7960
5746,7960
5746,7677
6078,7677
6362,7960
6645,7677
6623,7586
6433,7520
6232,7532
6100,7586
6078,7677
5746,7677
5746,5175
6047,4874
6589,4874
6645,4863
6696,4831
6730,4780
6742,4721
6742,3841
6732,3785
6699,3734
6649,3700
6589,3688
5709,3688
5654,3699
5602,3731
5568,3781
5556,3841
5556,4383
5154,4786
5079,4898
5052,5031
5052,13059
4939,13173
4856,13372
4856,13589
4329,13589
4329,3081
13849,3081
13849,19692
" /> 
</g>
<g style="fill:#FFFFFF; fill-opacity:1.0; 
stroke:#FFFFFF; stroke-width:100; stroke-opacity:1; 
stroke-linecap:round; stroke-linejoin:round;">
</g>
<g style="fill:#FFFFFF; fill-opacity:1.0; 
stroke:#FFFFFF; stroke-width:0; stroke-opacity:1; 
stroke-linecap:round; stroke-linejoin:round;">
<circle cx="8149.61" cy="16281.5" r="157.48" /> 
</g>
<g style="fill:#FFFFFF; fill-opacity:1.0; 
stroke:#FFFFFF; stroke-width:19.685; stroke-opacity:1; 
stroke-linecap:round; stroke-linejoin:round;">
</g>
<g style="fill:#FFFFFF; fill-opacity:1.0; 
stroke:#FFFFFF; stroke-width:0; stroke-opacity:1; 
stroke-linecap:round; stroke-linejoin:round;">
<circle cx="8149.61" cy="14281.5" r="157.48" /> 
</g>
<g style="fill:#FFFFFF; fill-opacity:1.0; 
stroke:#FFFFFF; stroke-width:19.685; stroke-opacity:1; 
stroke-linecap:round; stroke-linejoin:round;">
</g>
<g style="fill:#FFFFFF; fill-opacity:1.0; 
stroke:#FFFFFF; stroke-width:0; stroke-opacity:1; 
stroke-linecap:round; stroke-linejoin:round;">
<circle cx="10149.6" cy="11281.5" r="157.48" /> 
</g>
<g style="fill:#FFFFFF; fill-opacity:1.0; 
stroke:#FFFFFF; stroke-width:19.685; stroke-opacity:1; 
stroke-linecap:round; stroke-linejoin:round;">
</g>
<g style="fill:#FFFFFF; fill-opacity:1.0; 
stroke:#FFFFFF; stroke-width:0; stroke-opacity:1; 
stroke-linecap:round; stroke-linejoin:round;">
<circle cx="12899.6" cy="11281.5" r="157.48" /> 
</g>
<g style="fill:#FFFFFF; fill-opacity:1.0; 
stroke:#FFFFFF; stroke-width:19.685; stroke-opacity:1; 
stroke-linecap:round; stroke-linejoin:round;">
</g>
<g style="fill:#FFFFFF; fill-opacity:1.0; 
stroke:#FFFFFF; stroke-width:0; stroke-opacity:1; 
stroke-linecap:round; stroke-linejoin:round;">
<circle cx="9399.61" cy="8281.5" r="157.48" /> 
</g>
<g style="fill:#FFFFFF; fill-opacity:1.0; 
stroke:#FFFFFF; stroke-width:19.685; stroke-opacity:1; 
stroke-linecap:round; stroke-linejoin:round;">
</g>
<g style="fill:#FFFFFF; fill-opacity:1.0; 
stroke:#FFFFFF; stroke-width:0; stroke-opacity:1; 
stroke-linecap:round; stroke-linejoin:round;">
<circle cx="9399.61" cy="6531.5" r="157.48" /> 
</g>
<g style="fill:#FFFFFF; fill-opacity:1.0; 
stroke:#FFFFFF; stroke-width:19.685; stroke-opacity:1; 
stroke-linecap:round; stroke-linejoin:round;">
</g>
<g style="fill:#FFFFFF; fill-opacity:1.0; 
stroke:#FFFFFF; stroke-width:0; stroke-opacity:1; 
stroke-linecap:round; stroke-linejoin:round;">
<circle cx="8649.61" cy="8281.5" r="157.48" /> 
</g>
<g style="fill:#FFFFFF; fill-opacity:1.0; 
stroke:#FFFFFF; stroke-width:19.685; stroke-opacity:1; 
stroke-linecap:round; stroke-linejoin:round;">
</g>
<g style="fill:#FFFFFF; fill-opacity:1.0; 
stroke:#FFFFFF; stroke-width:0; stroke-opacity:1; 
stroke-linecap:round; stroke-linejoin:round;">
<circle cx="8649.61" cy="6531.5" r="157.48" /> 
</g>
<g style="fill:#FFFFFF; fill-opacity:1.0; 
stroke:#FFFFFF; stroke-width:19.685; stroke-opacity:1; 
stroke-linecap:round; stroke-linejoin:round;">
</g>
<g style="fill:#FFFFFF; fill-opacity:1.0; 
stroke:#FFFFFF; stroke-width:0; stroke-opacity:1; 
stroke-linecap:round; stroke-linejoin:round;">
<circle cx="12149.6" cy="12531.5" r="157.48" /> 
</g>
<g style="fill:#FFFFFF; fill-opacity:1.0; 
stroke:#FFFFFF; stroke-width:19.685; stroke-opacity:1; 
stroke-linecap:round; stroke-linejoin:round;">
</g>
<g style="fill:#FFFFFF; fill-opacity:1.0; 
stroke:#FFFFFF; stroke-width:0; stroke-opacity:1; 
stroke-linecap:round; stroke-linejoin:round;">
<circle cx="9649.61" cy="12531.5" r="157.48" /> 
</g>
<g style="fill:#FFFFFF; fill-opacity:1.0; 
stroke:#FFFFFF; stroke-width:19.685; stroke-opacity:1; 
stroke-linecap:round; stroke-linejoin:round;">
</g>
<g style="fill:#FFFFFF; fill-opacity:1.0; 
stroke:#FFFFFF; stroke-width:0; stroke-opacity:1; 
stroke-linecap:round; stroke-linejoin:round;">
<circle cx="5399.61" cy="17481.5" r="157.5" /> 
</g>
<g style="fill:#FFFFFF; fill-opacity:1.0; 
stroke:#FFFFFF; stroke-width:19.685; stroke-opacity:1; 
stroke-linecap:round; stroke-linejoin:round;">
</g>
<g style="fill:#FFFFFF; fill-opacity:1.0; 
stroke:#FFFFFF; stroke-width:0; stroke-opacity:1; 
stroke-linecap:round; stroke-linejoin:round;">
<circle cx="5399.61" cy="13481.5" r="157.5" /> 
</g>
<g style="fill:#FFFFFF; fill-opacity:1.0; 
stroke:#FFFFFF; stroke-width:19.685; stroke-opacity:1; 
stroke-linecap:round; stroke-linejoin:round;">
</g>
<g style="fill:#FFFFFF; fill-opacity:1.0; 
stroke:#FFFFFF; stroke-width:0; stroke-opacity:1; 
stroke-linecap:round; stroke-linejoin:round;">
<circle cx="7149.61" cy="8031.5" r="157.48" /> 
</g>
<g style="fill:#FFFFFF; fill-opacity:1.0; 
stroke:#FFFFFF; stroke-width:19.685; stroke-opacity:1; 
stroke-linecap:round; stroke-linejoin:round;">
</g>
<g style="fill:#FFFFFF; fill-opacity:1.0; 
stroke:#FFFFFF; stroke-width:0; stroke-opacity:1; 
stroke-linecap:round; stroke-linejoin:round;">
<circle cx="6362.2" cy="8031.5" r="157.48" /> 
</g>
<g style="fill:#FFFFFF; fill-opacity:1.0; 
stroke:#FFFFFF; stroke-width:19.685; stroke-opacity:1; 
stroke-linecap:round; stroke-linejoin:round;">
</g>
<g style="fill:#FFFFFF; fill-opacity:1.0; 
stroke:#FFFFFF; stroke-width:0; stroke-opacity:1; 
stroke-linecap:round; stroke-linejoin:round;">
<circle cx="6399.61" cy="11031.5" r="157.48" /> 
</g>
<g style="fill:#FFFFFF; fill-opacity:1.0; 
stroke:#FFFFFF; stroke-width:19.685; stroke-opacity:1; 
stroke-linecap:round; stroke-linejoin:round;">
</g>
<g style="fill:#FFFFFF; fill-opacity:1.0; 
stroke:#FFFFFF; stroke-width:0; stroke-opacity:1; 
stroke-linecap:round; stroke-linejoin:round;">
<circle cx="6399.61" cy="10047.2" r="157.48" /> 
</g>
<g style="fill:#FFFFFF; fill-opacity:1.0; 
stroke:#FFFFFF; stroke-width:19.685; stroke-opacity:1; 
stroke-linecap:round; stroke-linejoin:round;">
</g>
<g style="fill:#FFFFFF; fill-opacity:1.0; 
stroke:#FFFFFF; stroke-width:0; stroke-opacity:1; 
stroke-linecap:round; stroke-linejoin:round;">
<circle cx="9899.61" cy="9281.5" r="157.48" /> 
</g>
<g style="fill:#FFFFFF; fill-opacity:1.0; 
stroke:#FFFFFF; stroke-width:19.685; stroke-opacity:1; 
stroke-linecap:round; stroke-linejoin:round;">
</g>
<g style="fill:#FFFFFF; fill-opacity:1.0; 
stroke:#FFFFFF; stroke-width:0; stroke-opacity:1; 
stroke-linecap:round; stroke-linejoin:round;">
<circle cx="10687" cy="9281.5" r="157.48" /> 
</g>
<g style="fill:#FFFFFF; fill-opacity:1.0; 
stroke:#FFFFFF; stroke-width:19.685; stroke-opacity:1; 
stroke-linecap:round; stroke-linejoin:round;">
</g>
<g style="fill:#FFFFFF; fill-opacity:1.0; 
stroke:#FFFFFF; stroke-width:0; stroke-opacity:1; 
stroke-linecap:round; stroke-linejoin:round;">
<circle cx="12149.6" cy="6781.5" r="157.48" /> 
</g>
<g style="fill:#FFFFFF; fill-opacity:1.0; 
stroke:#FFFFFF; stroke-width:19.685; stroke-opacity:1; 
stroke-linecap:round; stroke-linejoin:round;">
</g>
<g style="fill:#FFFFFF; fill-opacity:1.0; 
stroke:#FFFFFF; stroke-width:0; stroke-opacity:1; 
stroke-linecap:round; stroke-linejoin:round;">
<circle cx="11165.4" cy="6781.5" r="157.5" /> 
</g>
<g style="fill:#FFFFFF; fill-opacity:1.0; 
stroke:#FFFFFF; stroke-width:19.685; stroke-opacity:1; 
stroke-linecap:round; stroke-linejoin:round;">
</g>
<g style="fill:#FFFFFF; fill-opacity:1.0; 
stroke:#FFFFFF; stroke-width:0; stroke-opacity:1; 
stroke-linecap:round; stroke-linejoin:round;">
<circle cx="12149.6" cy="10031.5" r="157.48" /> 
</g>
<g style="fill:#FFFFFF; fill-opacity:1.0; 
stroke:#FFFFFF; stroke-width:19.685; stroke-opacity:1; 
stroke-linecap:round; stroke-linejoin:round;">
</g>
<g style="fill:#FFFFFF; fill-opacity:1.0; 
stroke:#FFFFFF; stroke-width:0; stroke-opacity:1; 
stroke-linecap:round; stroke-linejoin:round;">
<circle cx="13133.9" cy="10031.5" r="157.5" /> 
</g>
<g style="fill:#FFFFFF; fill-opacity:1.0; 
stroke:#FFFFFF; stroke-width:19.685; stroke-opacity:1; 
stroke-linecap:round; stroke-linejoin:round;">
</g>
<g style="fill:#FFFFFF; fill-opacity:1.0; 
stroke:#FFFFFF; stroke-width:0; stroke-opacity:1; 
stroke-linecap:round; stroke-linejoin:round;">
<circle cx="7399.61" cy="4281.5" r="200" /> 
</g>
<g style="fill:#FFFFFF; fill-opacity:1.0; 
stroke:#FFFFFF; stroke-width:19.685; stroke-opacity:1; 
stroke-linecap:round; stroke-linejoin:round;">
</g>
<g style="fill:#FFFFFF; fill-opacity:1.0; 
stroke:#FFFFFF; stroke-width:0; stroke-opacity:1; 
stroke-linecap:round; stroke-linejoin:round;">
<circle cx="8399.61" cy="4281.5" r="200" /> 
</g>
<g style="fill:#FFFFFF; fill-opacity:1.0; 
stroke:#FFFFFF; stroke-width:19.685; stroke-opacity:1; 
stroke-linecap:round; stroke-linejoin:round;">
</g>
<g style="fill:#FFFFFF; fill-opacity:1.0; 
stroke:#FFFFFF; stroke-width:0; stroke-opacity:1; 
stroke-linecap:round; stroke-linejoin:round;">
<circle cx="9399.61" cy="4281.5" r="200" /> 
</g>
<g style="fill:#FFFFFF; fill-opacity:1.0; 
stroke:#FFFFFF; stroke-width:19.685; stroke-opacity:1; 
stroke-linecap:round; stroke-linejoin:round;">
</g>
<g style="fill:#FFFFFF; fill-opacity:1.0; 
stroke:#FFFFFF; stroke-width:0; stroke-opacity:1; 
stroke-linecap:round; stroke-linejoin:round;">
<circle cx="10399.6" cy="4281.5" r="200" /> 
</g>
<g style="fill:#FFFFFF; fill-opacity:1.0; 
stroke:#FFFFFF; stroke-width:19.685; stroke-opacity:1; 
stroke-linecap:round; stroke-linejoin:round;">
</g>
<g style="fill:#FFFFFF; fill-opacity:1.0; 
stroke:#FFFFFF; stroke-width:0; stroke-opacity:1; 
stroke-linecap:round; stroke-linejoin:round;">
<circle cx="11399.6" cy="4281.5" r="200" /> 
</g>
<g style="fill:#FFFFFF; fill-opacity:1.0; 
stroke:#FFFFFF; stroke-width:19.685; stroke-opacity:1; 
stroke-linecap:round; stroke-linejoin:round;">
</g>
<g style="fill:#FFFFFF; fill-opacity:1.0; 
stroke:#FFFFFF; stroke-width:0; stroke-opacity:1; 
stroke-linecap:round; stroke-linejoin:round;">
<circle cx="12399.6" cy="4281.5" r="200" /> 
</g>
<g style="fill:#FFFFFF; fill-opacity:1.0; 
stroke:#FFFFFF; stroke-width:19.685; stroke-opacity:1; 
stroke-linecap:round; stroke-linejoin:round;">
</g>
<g style="fill:#FFFFFF; fill-opacity:1.0; 
stroke:#FFFFFF; stroke-width:0; stroke-opacity:1; 
stroke-linecap:round; stroke-linejoin:round;">
<circle cx="6149.61" cy="4281.5" r="200" /> 
</g>
<g style="fill:#FFFFFF; fill-opacity:1.0; 
stroke:#FFFFFF; stroke-width:19.685; stroke-opacity:1; 
stroke-linecap:round; stroke-linejoin:round;">
</g>
<g style="fill:#FFFFFF; fill-opacity:1.0; 
stroke:#FFFFFF; stroke-width:0; stroke-opacity:1; 
stroke-linecap:round; stroke-linejoin:round;">
<circle cx="9399.61" cy="5531.5" r="200" /> 
</g>
<g style="fill:#FFFFFF; fill-opacity:1.0; 
stroke:#FFFFFF; stroke-width:19.685; stroke-opacity:1; 
stroke-linecap:round; stroke-linejoin:round;">
</g>
<g style="fill:#FFFFFF; fill-opacity:1.0; 
stroke:#FFFFFF; stroke-width:0; stroke-opacity:1; 
stroke-linecap:round; stroke-linejoin:round;">
<circle cx="8399.61" cy="5531.5" r="200" /> 
</g>
<g style="fill:#FFFFFF; fill-opacity:1.0; 
stroke:#FFFFFF; stroke-width:19.685; stroke-opacity:1; 
stroke-linecap:round; stroke-linejoin:round;">
</g>
<g style="fill:#FFFFFF; fill-opacity:1.0; 
stroke:#FFFFFF; stroke-width:0; stroke-opacity:1; 
stroke-linecap:round; stroke-linejoin:round;">
<circle cx="7399.61" cy="5531.5" r="200" /> 
</g>
<g style="fill:#FFFFFF; fill-opacity:1.0; 
stroke:#FFFFFF; stroke-width:19.685; stroke-opacity:1; 
stroke-linecap:round; stroke-linejoin:round;">
</g>
<g style="fill:#FFFFFF; fill-opacity:1.0; 
stroke:#FFFFFF; stroke-width:0; stroke-opacity:1; 
stroke-linecap:round; stroke-linejoin:round;">
<circle cx="6149.61" cy="19781.5" r="157.48" /> 
</g>
<g style="fill:#FFFFFF; fill-opacity:1.0; 
stroke:#FFFFFF; stroke-width:19.685; stroke-opacity:1; 
stroke-linecap:round; stroke-linejoin:round;">
</g>
<g style="fill:#FFFFFF; fill-opacity:1.0; 
stroke:#FFFFFF; stroke-width:0; stroke-opacity:1; 
stroke-linecap:round; stroke-linejoin:round;">
<circle cx="5149.61" cy="19781.5" r="157.48" /> 
</g>
<g style="fill:#FFFFFF; fill-opacity:1.0; 
stroke:#FFFFFF; stroke-width:19.685; stroke-opacity:1; 
stroke-linecap:round; stroke-linejoin:round;">
</g>
<g style="fill:#FFFFFF; fill-opacity:1.0; 
stroke:#FFFFFF; stroke-width:0; stroke-opacity:1; 
stroke-linecap:round; stroke-linejoin:round;">
<circle cx="7149.61" cy="19781.5" r="157.48" /> 
</g>
<g style="fill:#FFFFFF; fill-opacity:1.0; 
stroke:#FFFFFF; stroke-width:19.685; stroke-opacity:1; 
stroke-linecap:round; stroke-linejoin:round;">
</g>
<g style="fill:#FFFFFF; fill-opacity:1.0; 
stroke:#FFFFFF; stroke-width:0; stroke-opacity:1; 
stroke-linecap:round; stroke-linejoin:round;">
<circle cx="12399.6" cy="19781.5" r="157.48" /> 
</g>
<g style="fill:#FFFFFF; fill-opacity:1.0; 
stroke:#FFFFFF; stroke-width:19.685; stroke-opacity:1; 
stroke-linecap:round; stroke-linejoin:round;">
</g>
<g style="fill:#FFFFFF; fill-opacity:1.0; 
stroke:#FFFFFF; stroke-width:0; stroke-opacity:1; 
stroke-linecap:round; stroke-linejoin:round;">
<circle cx="11399.6" cy="19781.5" r="157.48" /> 
</g>
<g style="fill:#FFFFFF; fill-opacity:1.0; 
stroke:#FFFFFF; stroke-width:19.685; stroke-opacity:1; 
stroke-linecap:round; stroke-linejoin:round;">
</g>
<g style="fill:#FFFFFF; fill-opacity:1.0; 
stroke:#FFFFFF; stroke-width:0; stroke-opacity:1; 
stroke-linecap:round; stroke-linejoin:round;">
<circle cx="13399.6" cy="19781.5" r="157.48" /> 
</g>
<g style="fill:#FFFFFF; fill-opacity:1.0; 
stroke:#FFFFFF; stroke-width:19.685; stroke-opacity:1; 
stroke-linecap:round; stroke-linejoin:round;">
</g>
<g style="fill:#FFFFFF; fill-opacity:1.0; 
stroke:#FFFFFF; stroke-width:0; stroke-opacity:1; 
stroke-linecap:round; stroke-linejoin:round;">
<circle cx="8399.61" cy="19781.5" r="177.165" /> 
</g>
<g style="fill:#FFFFFF; fill-opacity:1.0; 
stroke:#FFFFFF; stroke-width:19.685; stroke-opacity:1; 
stroke-linecap:round; stroke-linejoin:round;">
</g>
<g style="fill:#FFFFFF; fill-opacity:1.0; 
stroke:#FFFFFF; stroke-width:0; stroke-opacity:1; 
stroke-linecap:round; stroke-linejoin:round;">
<circle cx="10368.1" cy="19781.5" r="177.165" /> 
</g>
<g style="fill:#FFFFFF; fill-opacity:1.0; 
stroke:#FFFFFF; stroke-width:19.685; stroke-opacity:1; 
stroke-linecap:round; stroke-linejoin:round;">
</g>
<g style="fill:#FFFFFF; fill-opacity:1.0; 
stroke:#FFFFFF; stroke-width:0; stroke-opacity:1; 
stroke-linecap:round; stroke-linejoin:round;">
<circle cx="7149.61" cy="17531.5" r="157.5" /> 
</g>
<g style="fill:#FFFFFF; fill-opacity:1.0; 
stroke:#FFFFFF; stroke-width:19.685; stroke-opacity:1; 
stroke-linecap:round; stroke-linejoin:round;">
</g>
<g style="fill:#FFFFFF; fill-opacity:1.0; 
stroke:#FFFFFF; stroke-width:0; stroke-opacity:1; 
stroke-linecap:round; stroke-linejoin:round;">
<circle cx="7149.61" cy="13531.5" r="157.5" /> 
</g>
<g style="fill:#FFFFFF; fill-opacity:1.0; 
stroke:#FFFFFF; stroke-width:19.685; stroke-opacity:1; 
stroke-linecap:round; stroke-linejoin:round;">
</g>
<g style="fill:#FFFFFF; fill-opacity:1.0; 
stroke:#FFFFFF; stroke-width:0; stroke-opacity:1; 
stroke-linecap:round; stroke-linejoin:round;">
<circle cx="9899.61" cy="17531.5" r="157.5" /> 
</g>
<g style="fill:#FFFFFF; fill-opacity:1.0; 
stroke:#FFFFFF; stroke-width:19.685; stroke-opacity:1; 
stroke-linecap:round; stroke-linejoin:round;">
</g>
<g style="fill:#FFFFFF; fill-opacity:1.0; 
stroke:#FFFFFF; stroke-width:0; stroke-opacity:1; 
stroke-linecap:round; stroke-linejoin:round;">
<circle cx="9899.61" cy="13531.5" r="98.4252" /> 
</g>
<g style="fill:#FFFFFF; fill-opacity:1.0; 
stroke:#FFFFFF; stroke-width:19.685; stroke-opacity:1; 
stroke-linecap:round; stroke-linejoin:round;">
</g>
<g style="fill:#FFFFFF; fill-opacity:1.0; 
stroke:#FFFFFF; stroke-width:0; stroke-opacity:1; 
stroke-linecap:round; stroke-linejoin:round;">
<circle cx="11399.6" cy="13531.5" r="157.5" /> 
</g>
<g style="fill:#FFFFFF; fill-opacity:1.0; 
stroke:#FFFFFF; stroke-width:19.685; stroke-opacity:1; 
stroke-linecap:round; stroke-linejoin:round;">
</g>
<g style="fill:#FFFFFF; fill-opacity:1.0; 
stroke:#FFFFFF; stroke-width:0; stroke-opacity:1; 
stroke-linecap:round; stroke-linejoin:round;">
<circle cx="11399.6" cy="17531.5" r="157.5" /> 
</g>
<g style="fill:#FFFFFF; fill-opacity:1.0; 
stroke:#FFFFFF; stroke-width:19.685; stroke-opacity:1; 
stroke-linecap:round; stroke-linejoin:round;">
</g>
<g style="fill:#000000; fill-opacity:1.0; 
stroke:#000000; stroke-width:19.685; stroke-opacity:1; 
stroke-linecap:round; stroke-linejoin:round;">
</g>
<g style="fill:#000000; fill-opacity:0.0; 
stroke:#000000; stroke-width:19.685; stroke-opacity:1; 
stroke-linecap:round; stroke-linejoin:round;">
</g>
<g style="fill:#000000; fill-opacity:0.0; 
stroke:#000000; stroke-width:118.11; stroke-opacity:1; 
stroke-linecap:round; stroke-linejoin:round;">
<path d="M6703 1764
L6731 1736
L6787 1708
L6928 1708
L6984 1736
L7012 1764
L7040 1820
L7040 1876
L7012 1961
L6674 2298
L7040 2298
" />
<path d="M7574 1708
L7293 1708
L7265 1989
L7293 1961
L7349 1933
L7490 1933
L7546 1961
L7574 1989
L7602 2045
L7602 2186
L7574 2242
L7546 2270
L7490 2298
L7349 2298
L7293 2270
L7265 2242
" />
<path d="M7884 2270
L7884 2298
L7856 2354
L7827 2383
" />
<path d="M8390 1904
L8390 2298
" />
<path d="M8249 1679
L8109 2101
L8474 2101
" />
<path d="M8812 1708
L8868 1708
L8924 1736
L8952 1764
L8980 1820
L9008 1933
L9008 2073
L8980 2186
L8952 2242
L8924 2270
L8868 2298
L8812 2298
L8755 2270
L8727 2242
L8699 2186
L8671 2073
L8671 1933
L8699 1820
L8727 1764
L8755 1736
L8812 1708
" />
<path d="M9374 1708
L9430 1708
L9487 1736
L9515 1764
L9543 1820
L9571 1933
L9571 2073
L9543 2186
L9515 2242
L9487 2270
L9430 2298
L9374 2298
L9318 2270
L9290 2242
L9262 2186
L9233 2073
L9233 1933
L9262 1820
L9290 1764
L9318 1736
L9374 1708
" />
<path d="M10274 2298
L10274 1904
" />
<path d="M10274 1961
L10302 1933
L10358 1904
L10443 1904
L10499 1933
L10527 1989
L10527 2298
" />
<path d="M10527 1989
L10555 1933
L10611 1904
L10696 1904
L10752 1933
L10780 1989
L10780 2298
" />
<path d="M11061 2298
L11061 1904
" />
<path d="M11061 1961
L11089 1933
L11146 1904
L11230 1904
L11286 1933
L11314 1989
L11314 2298
" />
<path d="M11314 1989
L11343 1933
L11399 1904
L11483 1904
L11539 1933
L11568 1989
L11568 2298
" />
<path d="M4149 1531
L14149 1531
" />
<path d="M4149 1031
L4149 2594
" />
<path d="M14149 1031
L14149 2594
" />
<path d="M14149 1531
L13706 1762
" />
<path d="M14149 1531
L13706 1300
" />
<path d="M4149 1531
L4593 1762
" />
<path d="M4149 1531
L4593 1300
" />
<path d="M2744 9616
L2350 9616
" />
<path d="M2969 9475
L2547 9334
L2547 9700
" />
<path d="M2941 10206
L2941 9925
L2660 9897
L2688 9925
L2716 9981
L2716 10122
L2688 10178
L2660 10206
L2604 10234
L2463 10234
L2407 10206
L2379 10178
L2350 10122
L2350 9981
L2379 9925
L2407 9897
" />
<path d="M2379 10516
L2350 10516
L2294 10487
L2266 10459
" />
<path d="M2941 10712
L2941 11106
L2350 10853
" />
<path d="M2885 11303
L2913 11331
L2941 11387
L2941 11528
L2913 11584
L2885 11612
L2829 11640
L2772 11640
L2688 11612
L2350 11275
L2350 11640
" />
<path d="M2941 12006
L2941 12062
L2913 12118
L2885 12147
L2829 12175
L2716 12203
L2575 12203
L2463 12175
L2407 12147
L2379 12118
L2350 12062
L2350 12006
L2379 11950
L2407 11922
L2463 11893
L2575 11865
L2716 11865
L2829 11893
L2885 11922
L2913 11950
L2941 12006
" />
<path d="M2350 12906
L2744 12906
" />
<path d="M2688 12906
L2716 12934
L2744 12990
L2744 13075
L2716 13131
L2660 13159
L2350 13159
" />
<path d="M2660 13159
L2716 13187
L2744 13243
L2744 13328
L2716 13384
L2660 13412
L2350 13412
" />
<path d="M2350 13693
L2744 13693
" />
<path d="M2688 13693
L2716 13721
L2744 13778
L2744 13862
L2716 13918
L2660 13946
L2350 13946
" />
<path d="M2660 13946
L2716 13974
L2744 14031
L2744 14115
L2716 14171
L2660 14199
L2350 14199
" />
<path d="M3149 2781
L3149 20781
" />
<path d="M4149 2781
L2086 2781
" />
<path d="M4149 20781
L2086 20781
" />
<path d="M3149 20781
L2918 20337
" />
<path d="M3149 20781
L3380 20337
" />
<path d="M3149 2781
L2918 3225
" />
<path d="M3149 2781
L3380 3225
" />
</g>
<g style="fill:#000000; fill-opacity:0.0; 
stroke:#000000; stroke-width:59.0551; stroke-opacity:1; 
stroke-linecap:round; stroke-linejoin:round;">
<path d="M4149 20781
L4149 2781
" />
<path d="M14149 20781
L4149 20781
" />
<path d="M14149 2781
L14149 20781
" />
<path d="M4149 2781
L14149 2781
" />
</g> 
</svg>
